<?xml version="1.0" standalone="no"?>
<!DOCTYPE svg PUBLIC "-//W3C//DTD SVG 20010904//EN"
 "http://www.w3.org/TR/2001/REC-SVG-20010904/DTD/svg10.dtd">
<svg version="1.0" xmlns="http://www.w3.org/2000/svg"
 width="241.000000pt" height="241.000000pt" viewBox="0 0 241.000000 241.000000"
 preserveAspectRatio="xMidYMid meet">
<metadata>
Created by potrace 1.11, written by Peter Selinger 2001-2013
</metadata>
<g transform="translate(0.000000,241.000000) scale(0.100000,-0.100000)"
fill="#000000" stroke="none">
<path d="M1045 1910 c0 -55 -3 -100 -7 -100 -3 0 -30 43 -58 95 -28 52 -55 95
-59 95 -3 0 -71 -109 -150 -242 -79 -134 -210 -355 -292 -493 -82 -137 -154
-259 -159 -270 -6 -11 -35 -60 -65 -110 -31 -49 -101 -167 -156 -262 -106
-182 -117 -215 -68 -221 32 -4 45 12 105 126 l49 92 373 -2 374 -3 51 -99 52
-98 675 7 c460 4 679 10 688 17 7 6 12 23 10 36 -4 34 -28 39 -158 36 -381 -7
-487 -8 -498 0 -7 4 -18 20 -24 34 -12 27 -12 27 -16 4 -5 -31 4 -53 20 -47 8
3 22 -11 35 -34 l22 -39 -372 2 -372 1 3 660 c2 363 5 661 7 663 1 2 15 -21
30 -50 25 -47 131 -241 202 -368 14 -25 38 -67 53 -95 15 -27 74 -135 132
-240 58 -104 123 -221 144 -260 21 -38 51 -92 66 -120 l28 -50 1 35 c0 19 1
69 0 110 -1 232 0 961 3 1113 l3 177 -337 0 -336 0 1 -100z m-409 -733 c26
-50 55 -105 64 -122 9 -16 52 -97 95 -180 43 -82 82 -156 88 -162 10 -13 12
-13 -333 -14 -58 0 -152 0 -208 0 l-104 1 33 58 c17 31 40 71 50 87 10 17 28
48 40 70 20 36 146 248 169 285 6 8 18 29 27 47 9 18 20 30 24 27 4 -2 29 -46
55 -97z"/>
</g>
</svg>
